<svg width="150" height="150" viewBox="0 0 150 150" fill="none" xmlns="http://www.w3.org/2000/svg">
<rect y="7.62939e-06" width="150" height="150" rx="75" fill="#8D75F5"/>
<path d="M111.555 81.7153C111.555 87.0221 110.493 91.5882 108.482 94.9223C105.901 99.2048 101.89 101.471 96.8823 101.471C87.3245 101.471 80.8991 89.48 74.0987 76.7868C69.1575 67.5662 63.0251 56.0924 57.9831 56.0924C55.5535 56.0924 52.5756 59.0452 50.2121 63.7973C47.5087 69.3876 46.0733 75.506 46.0083 81.7153C46.0083 85.5914 46.7142 88.8939 47.9936 91.0179C49.1817 92.9905 50.8109 93.9076 53.1176 93.9076C57.4506 93.9076 62.7699 84.7689 64.5188 81.7784C65.0241 80.9117 65.8529 80.2812 66.823 80.0256C67.7931 79.77 68.8249 79.9102 69.6916 80.4154C70.5583 80.9207 71.1888 81.7495 71.4444 82.7196C71.7 83.6897 71.5598 84.7215 71.0546 85.5882C68.2468 90.4034 65.8455 93.7815 63.4915 96.2332C60.1102 99.7563 56.7226 101.471 53.1176 101.471C48.1102 101.471 44.0987 99.2048 41.5178 94.9223C39.5073 91.5882 38.4453 87.0221 38.4453 81.7153C38.4453 67.8592 45.876 48.5294 57.9831 48.5294C67.5409 48.5294 73.9663 60.52 80.7667 73.2132C85.7142 82.4338 91.8497 93.9076 96.8823 93.9076C99.189 93.9076 100.818 92.9905 102.006 91.0179C103.286 88.8939 103.992 85.5914 103.992 81.7153C103.928 75.5062 102.493 69.3878 99.7909 63.7973C97.4275 59.0452 94.4495 56.0924 92.0167 56.0924C90.2142 56.0924 88.043 57.6681 85.5598 60.7658C84.933 61.5489 84.0207 62.0509 83.0238 62.1614C82.0268 62.2719 81.0267 61.9819 80.2436 61.355C79.4605 60.7282 78.9585 59.816 78.848 58.819C78.7375 57.822 79.0275 56.822 79.6543 56.0389C83.7037 50.9874 87.7468 48.5294 92.0167 48.5294C97.5787 48.5294 102.731 52.7553 106.56 60.4286C109.771 67.0699 111.477 74.3386 111.555 81.7153Z" fill="white"/>
</svg>
