<svg width="38" height="38" viewBox="0 0 38 38" fill="none" xmlns="http://www.w3.org/2000/svg">
<path d="M37 18.9999C37 28.7098 28.9411 36.5812 19 36.5812C9.05887 36.5812 1 28.7098 1 18.9999C1 9.28992 9.05887 1.41846 19 1.41846C28.9411 1.41846 37 9.28992 37 18.9999ZM2.8 18.9999C2.8 27.7388 10.053 34.8231 19 34.8231C27.947 34.8231 35.2 27.7388 35.2 18.9999C35.2 10.2609 27.947 3.1766 19 3.1766C10.053 3.1766 2.8 10.2609 2.8 18.9999Z" fill="#2874F0"/>
<path d="M26 9.74404C26 13.7898 22.6421 17.0696 18.5 17.0696C14.3579 17.0696 11 13.7898 11 9.74404C11 5.69823 14.3579 2.41846 18.5 2.41846C22.6421 2.41846 26 5.69823 26 9.74404ZM12.9844 9.74404C12.9844 12.7194 15.4538 15.1314 18.5 15.1314C21.5462 15.1314 24.0156 12.7194 24.0156 9.74404C24.0156 6.76871 21.5462 4.35672 18.5 4.35672C15.4538 4.35672 12.9844 6.76871 12.9844 9.74404Z" fill="#2874F0"/>
<path d="M11 10.4185H13V33.4185L11 32.4185V10.4185Z" fill="#2874F0"/>
<path d="M37 18.9999C37 28.7098 28.9411 36.5812 19 36.5812C9.05887 36.5812 1 28.7098 1 18.9999C1 9.28992 9.05887 1.41846 19 1.41846C28.9411 1.41846 37 9.28992 37 18.9999ZM2.8 18.9999C2.8 27.7388 10.053 34.8231 19 34.8231C27.947 34.8231 35.2 27.7388 35.2 18.9999C35.2 10.2609 27.947 3.1766 19 3.1766C10.053 3.1766 2.8 10.2609 2.8 18.9999Z" stroke="#2874F0" stroke-width="2"/>
<path d="M26 9.74404C26 13.7898 22.6421 17.0696 18.5 17.0696C14.3579 17.0696 11 13.7898 11 9.74404C11 5.69823 14.3579 2.41846 18.5 2.41846C22.6421 2.41846 26 5.69823 26 9.74404ZM12.9844 9.74404C12.9844 12.7194 15.4538 15.1314 18.5 15.1314C21.5462 15.1314 24.0156 12.7194 24.0156 9.74404C24.0156 6.76871 21.5462 4.35672 18.5 4.35672C15.4538 4.35672 12.9844 6.76871 12.9844 9.74404Z" stroke="#2874F0" stroke-width="2"/>
<path d="M11 10.4185H13V33.4185L11 32.4185V10.4185Z" stroke="#2874F0" stroke-width="2"/>
</svg>
